<?xml version="1.0" encoding="UTF-8"?>
<svg width="14px" height="14px" viewBox="0 0 14 14" version="1.1" xmlns="http://www.w3.org/2000/svg" xmlns:xlink="http://www.w3.org/1999/xlink">
    <!-- Generator: Sketch 59 (86127) - https://sketch.com -->
    <title>ICON/文件</title>
    <desc>Created with Sketch.</desc>
    <g id="ICON/文件" stroke="none" stroke-width="1" fill="none" fill-rule="evenodd">
        <g id="paperclip" fill="#8C8C8C" fill-rule="nonzero">
            <path d="M12.8078125,3.159375 C12.071875,2.4328125 11.09375,2.0296875 10.05,2.028125 L10.0390625,2.028125 C9.5375,2.028125 9.0484375,2.121875 8.5828125,2.30625 C8.1,2.4984375 7.665625,2.78125 7.29375,3.1484375 L3.6546875,6.7453125 C3.234375,7.1609375 3.0046875,7.715625 3.00625,8.3078125 C3.0078125,8.8984375 3.240625,9.453125 3.6625,9.8703125 C4.084375,10.2875 4.64375,10.5171875 5.240625,10.51875 C5.840625,10.51875 6.3984375,10.290625 6.8171875,9.878125 L10.0109375,6.721875 C10.1171875,6.6171875 10.175,6.478125 10.175,6.33125 C10.175,6.1828125 10.1171875,6.04375 10.0109375,5.940625 C9.90625,5.8359375 9.765625,5.7796875 9.6171875,5.7796875 C9.46875,5.7796875 9.328125,5.8375 9.2234375,5.940625 L6.0296875,9.096875 C5.821875,9.303125 5.5421875,9.415625 5.24375,9.415625 C4.940625,9.4140625 4.6578125,9.2984375 4.4484375,9.090625 C4.2375,8.88125 4.1203125,8.603125 4.1203125,8.30625 C4.11875,8.0109375 4.2328125,7.734375 4.4421875,7.528125 L8.08125,3.9296875 C8.6,3.415625 9.296875,3.1328125 10.040625,3.1328125 C10.7953125,3.134375 11.496875,3.421875 12.0234375,3.940625 C12.5484375,4.4609375 12.8390625,5.153125 12.840625,5.890625 C12.8421875,6.628125 12.55625,7.31875 12.0359375,7.8328125 L8.175,11.653125 C7.403125,12.4125 6.371875,12.83125 5.271875,12.83125 L5.2609375,12.83125 C4.15625,12.828125 3.11875,12.403125 2.340625,11.634375 C1.5625,10.865625 1.1328125,9.840625 1.13125,8.7484375 C1.128125,7.65625 1.553125,6.634375 2.325,5.871875 L7.309375,0.94375 C7.415625,0.8390625 7.4734375,0.7 7.4734375,0.553125 C7.4734375,0.4046875 7.415625,0.265625 7.309375,0.1625 C7.203125,0.0578125 7.0625,0 6.9140625,0 C6.765625,0 6.625,0.0578125 6.5203125,0.1609375 L1.5359375,5.090625 C1.0390625,5.58125 0.6546875,6.1578125 0.3921875,6.8015625 C0.140625,7.4234375 0.0140625,8.0796875 0.0155693571,8.7515625 C0.0171875,9.425 0.146875,10.08125 0.403125,10.7015625 C0.6671875,11.3453125 1.053125,11.921875 1.553125,12.415625 C2.05,12.9078125 2.634375,13.290625 3.2859375,13.553125 C3.9109375,13.8046875 4.575,13.9328125 5.2578125,13.9359375 L5.271875,13.9359375 C5.95,13.9359375 6.6078125,13.8109375 7.2296875,13.5625 C7.8796875,13.3046875 8.4625,12.925 8.959375,12.4328125 L12.8203125,8.6140625 C13.190625,8.246875 13.478125,7.81875 13.671875,7.3390625 C13.859375,6.875 13.9546875,6.3875 13.953198,5.8859375 C13.9484375,4.8546875 13.5421875,3.8859375 12.8078125,3.159375 Z" id="Shape"></path>
        </g>
    </g>
</svg>