<?xml version="1.0" encoding="UTF-8"?>
<svg width="20px" height="20px" viewBox="0 0 20 20" version="1.1" xmlns="http://www.w3.org/2000/svg" xmlns:xlink="http://www.w3.org/1999/xlink">
    <!-- Generator: Sketch 59 (86127) - https://sketch.com -->
    <title>ICON/加号</title>
    <desc>Created with Sketch.</desc>
    <g id="报表" stroke="none" stroke-width="1" fill="none" fill-rule="evenodd">
        <g id="组件规范" transform="translate(-194.000000, -319.000000)" fill="#A6A6A6" fill-rule="nonzero">
            <g id="编组-26" transform="translate(152.000000, 290.000000)">
                <g id="开机调试备份" transform="translate(42.000000, 29.000000)">
                    <g id="编组">
                        <path d="M10,1.66666667 C10.3703059,1.66666667 10.6704981,1.96685888 10.6704981,2.33716475 L10.6704981,2.33716475 L10.6696667,9.32866667 L17.6628352,9.32950192 C17.9994769,9.32950192 18.2781735,9.57759466 18.3260634,9.90091871 L18.3333333,10 C18.3333333,10.3703059 18.0331411,10.6704981 17.6628352,10.6704981 L17.6628352,10.6704981 L10.6696667,10.6696667 L10.6704981,17.6628352 C10.6704981,17.9994769 10.4224053,18.2781735 10.0990813,18.3260634 L10,18.3333333 C9.62969413,18.3333333 9.32950192,18.0331411 9.32950192,17.6628352 L9.32950192,17.6628352 L9.32866667,10.6696667 L2.33716475,10.6704981 C2.00052305,10.6704981 1.72182652,10.4224053 1.67393659,10.0990813 L1.66666667,10 C1.66666667,9.62969413 1.96685888,9.32950192 2.33716475,9.32950192 L2.33716475,9.32950192 L9.32866667,9.32866667 L9.32950192,2.33716475 C9.32950192,2.00052305 9.57759466,1.72182652 9.90091871,1.67393659 Z" id="形状结合"></path>
                    </g>
                </g>
            </g>
        </g>
    </g>
</svg>