<?xml version="1.0" encoding="UTF-8"?>
<svg width="14px" height="14px" viewBox="0 0 14 14" version="1.1" xmlns="http://www.w3.org/2000/svg" xmlns:xlink="http://www.w3.org/1999/xlink" style="background: #000000;">
    <!-- Generator: Sketch 59 (86127) - https://sketch.com -->
    <title>ICON/删除</title>
    <desc>Created with Sketch.</desc>
    <g id="ICON/删除" stroke="none" stroke-width="1" fill="none" fill-rule="evenodd">
        <rect fill="#000000" x="0" y="0" width="14" height="14"></rect>
        <g id="编组" fill="#FFFFFF" fill-rule="nonzero">
            <path d="M10.0008613,1.54545241 C10.2770036,1.54545241 10.5008613,1.76931003 10.5008613,2.04545241 L10.5008613,2.04545241 L10.5000391,3.63445241 L12.9580391,3.63499928 C13.203499,3.63499928 13.4076475,3.81187445 13.4499834,4.04512365 L13.4580391,4.13499928 C13.4580391,4.41114166 13.2341815,4.63499928 12.9580391,4.63499928 L12.9580391,4.63499928 L12.3730391,4.63445241 L10.9494752,12.2271436 C10.9106766,12.4340692 10.7477349,12.5911395 10.5464175,12.6271739 L10.4580391,12.6349993 L3.4580391,12.6349993 C3.21743157,12.6349993 3.01094422,12.46363 2.96660301,12.2271436 L2.96660301,12.2271436 L1.5420391,4.63445241 L0.958039102,4.63499928 C0.712579213,4.63499928 0.508430731,4.45812412 0.466094771,4.22487492 L0.458039102,4.13499928 C0.458039102,3.85885691 0.681896727,3.63499928 0.958039102,3.63499928 L0.958039102,3.63499928 L3.5000391,3.63445241 L3.50086127,2.04545241 C3.50086127,1.79999252 3.67773643,1.59584404 3.91098564,1.55350808 L4.00086127,1.54545241 Z M11.3550391,4.63445241 L2.5600391,4.63445241 L3.87300225,11.6349993 L10.043076,11.6349993 L11.3550391,4.63445241 Z M9.50086127,2.54545241 L4.50086127,2.54545241 L4.5000391,3.63445241 L9.5000391,3.63445241 L9.50086127,2.54545241 Z" id="形状结合"></path>
        </g>
    </g>
</svg>