<?xml version="1.0" encoding="UTF-8"?>
<svg width="14px" height="14px" viewBox="0 0 14 14" version="1.1" xmlns="http://www.w3.org/2000/svg" xmlns:xlink="http://www.w3.org/1999/xlink">
    <!-- Generator: Sketch 59 (86127) - https://sketch.com -->
    <title>ICON/上传</title>
    <desc>Created with Sketch.</desc>
    <g id="ICON/上传" stroke="none" stroke-width="1" fill="none" fill-rule="evenodd">
        <g id="编组" fill="#218DEB" fill-rule="nonzero">
            <path d="M13,7.5 C13.2761424,7.5 13.5,7.72385763 13.5,8 L13.5,8 L13.5,11 C13.5,11.8284271 12.8284271,12.5 12,12.5 L12,12.5 L2,12.5 C1.17157288,12.5 0.5,11.8284271 0.5,11 L0.5,11 L0.5,8 C0.5,7.72385763 0.723857625,7.5 1,7.5 C1.27614237,7.5 1.5,7.72385763 1.5,8 L1.5,8 L1.5,11 C1.5,11.2761424 1.72385763,11.5 2,11.5 L2,11.5 L12,11.5 C12.2761424,11.5 12.5,11.2761424 12.5,11 L12.5,11 L12.5,8 C12.5,7.72385763 12.7238576,7.5 13,7.5 Z M6.64644661,1.81801948 C6.84170876,1.62275734 7.15829124,1.62275734 7.35355339,1.81801948 L7.35355339,1.81801948 L10.1819805,4.64644661 C10.3772427,4.84170876 10.3772427,5.15829124 10.1819805,5.35355339 C9.98671837,5.54881554 9.67013588,5.54881554 9.47487373,5.35355339 L9.47487373,5.35355339 L7.5,3.37857288 L7.5,9.58844715 C7.5,9.83390704 7.32312484,10.0380555 7.08987563,10.0803915 L7,10.0884471 C6.72385763,10.0884471 6.5,9.86458952 6.5,9.58844715 L6.5,9.58844715 L6.5,3.37857288 L4.52512627,5.35355339 C4.35155991,5.52711974 4.08213551,5.54640489 3.88726737,5.41140884 L3.81801948,5.35355339 C3.62275734,5.15829124 3.62275734,4.84170876 3.81801948,4.64644661 L3.81801948,4.64644661 Z" id="形状结合"></path>
        </g>
    </g>
</svg>