<?xml version="1.0" encoding="UTF-8"?>
<svg width="14px" height="14px" viewBox="0 0 14 14" version="1.1" xmlns="http://www.w3.org/2000/svg" xmlns:xlink="http://www.w3.org/1999/xlink" style="background: #000000;">
    <!-- Generator: Sketch 59 (86127) - https://sketch.com -->
    <title>ICON/查看</title>
    <desc>Created with Sketch.</desc>
    <g id="ICON/查看" stroke="none" stroke-width="1" fill="none" fill-rule="evenodd">
        <rect fill="#000000" x="0" y="0" width="14" height="14"></rect>
        <g id="编组" fill="#FFFFFF" fill-rule="nonzero">
            <path d="M7,2 C9.42900872,2 11.6412968,3.48035963 13.6368642,6.4410789 C13.8392549,6.74135541 13.8617432,7.12408443 13.7043289,7.44268411 L13.6368656,7.55886663 L13.4296781,7.85988619 C11.4884859,10.6199621 9.34525986,12 7,12 C4.57099128,12 2.35870321,10.5196404 0.363135789,7.5589211 C0.160745096,7.25864459 0.138256818,6.87591557 0.295671135,6.55731589 L0.363134438,6.44113337 L0.570321911,6.14011381 C2.51151411,3.38003794 4.65474014,2 7,2 Z M7,3 C5.02048753,3 3.15781269,4.1993891 1.39406155,6.70708206 L1.19236326,7.00004262 L1.38839636,7.28484469 C3.1562063,9.79953017 5.02090438,11 7,11 C8.97951247,11 10.8421873,9.8006109 12.6059384,7.29291794 L12.8076291,6.99997889 C10.9817626,4.29104025 9.05239546,3 7,3 Z M7,5 C8.1045695,5 9,5.8954305 9,7 C9,8.1045695 8.1045695,9 7,9 C5.8954305,9 5,8.1045695 5,7 C5,5.8954305 5.8954305,5 7,5 Z M7,6 C6.44771525,6 6,6.44771525 6,7 C6,7.55228475 6.44771525,8 7,8 C7.55228475,8 8,7.55228475 8,7 C8,6.44771525 7.55228475,6 7,6 Z" id="形状结合"></path>
        </g>
    </g>
</svg>